<svg width="211" height="39" viewBox="0 0 211 39" fill="none" xmlns="http://www.w3.org/2000/svg">
<g clip-path="url(#clip0_474_426)">
<mask id="mask0_474_426" style="mask-type:luminance" maskUnits="userSpaceOnUse" x="0" y="0" width="211" height="39">
<path d="M211 0H0V39H211V0Z" fill="white"/>
</mask>
<g mask="url(#mask0_474_426)">
<path fill-rule="evenodd" clip-rule="evenodd" d="M37.3561 17.9817C37.3561 25.9281 30.4639 32.37 21.9621 32.37C13.4602 32.37 6.56812 25.9281 6.56812 17.9817C6.56812 17.9587 6.58815 17.94 6.61278 17.94H11.8333C12.0797 17.94 12.2784 18.1271 12.2896 18.3572C12.5229 23.1848 16.7841 27.0317 22.0067 27.0317C27.2293 27.0317 31.4905 23.1848 31.7238 18.3572C31.735 18.1271 31.9337 17.94 32.1801 17.94H37.3113C37.3361 17.94 37.3561 17.9587 37.3561 17.9817Z" fill="#38A169"/>
<path fill-rule="evenodd" clip-rule="evenodd" d="M27.9008 4.14179C27.9008 4.00826 28.0176 3.89999 28.1616 3.89999H29.7259C29.8699 3.89999 29.9867 4.00826 29.9867 4.14179V5.34319C30.336 5.40091 30.6582 5.49244 30.9532 5.61802C31.502 5.85015 31.9289 6.17315 32.2339 6.5869C32.5388 7.00069 32.6961 7.47996 32.7057 8.02467H30.7076C30.6691 7.66447 30.5039 7.38468 30.2117 7.18524C29.9197 6.98579 29.5232 6.88607 29.0226 6.88607C28.6823 6.88607 28.3951 6.93076 28.1607 7.02003C27.9264 7.10634 27.7467 7.22693 27.6215 7.38176C27.4996 7.53651 27.4385 7.71209 27.4385 7.90861C27.4321 8.07229 27.4691 8.21519 27.5493 8.33718C27.6327 8.45925 27.7467 8.56498 27.8912 8.65429C28.0356 8.7406 28.2024 8.81645 28.3919 8.88189C28.5812 8.94445 28.7834 8.99807 28.9984 9.04265L29.8844 9.23917C30.3145 9.32848 30.7092 9.44755 31.0687 9.59637C31.4282 9.74524 31.7396 9.92822 32.0028 10.1456C32.2659 10.3629 32.4697 10.6189 32.6142 10.9135C32.7619 11.2083 32.8373 11.5461 32.8405 11.9271C32.8373 12.4867 32.6832 12.9719 32.3783 13.3827C32.0766 13.7906 31.6401 14.1076 31.0687 14.3338C30.7459 14.4606 30.3851 14.5515 29.9867 14.6062V15.7482C29.9867 15.8817 29.8699 15.99 29.7259 15.99H28.1616C28.0176 15.99 27.9008 15.8817 27.9008 15.7482V14.5846C27.5523 14.5281 27.2297 14.443 26.9331 14.3293C26.3457 14.1031 25.8867 13.7683 25.556 13.3247C25.2286 12.8782 25.0569 12.326 25.0409 11.6682H27.0582C27.0806 11.9748 27.1754 12.2307 27.3422 12.4362C27.5124 12.6386 27.7387 12.7918 28.0212 12.896C28.3068 12.9973 28.6293 13.0479 28.9889 13.0479C29.3419 13.0479 29.6484 13.0003 29.9084 12.905C30.1716 12.8097 30.3755 12.6773 30.5199 12.5076C30.6643 12.338 30.7366 12.143 30.7366 11.9227C30.7366 11.7173 30.6707 11.5446 30.5391 11.4047C30.4107 11.2648 30.2214 11.1457 29.9711 11.0475C29.7239 10.9493 29.4205 10.86 29.0611 10.7796L27.9875 10.5296C27.1561 10.3421 26.4997 10.0488 26.0183 9.64992C25.5367 9.25111 25.2977 8.7138 25.3009 8.03813C25.2977 7.48441 25.4565 7.00069 25.7775 6.5869C26.1017 6.17315 26.5462 5.85015 27.1112 5.61802C27.3595 5.51596 27.6226 5.43636 27.9008 5.37915V4.14179Z" fill="#38A169"/>
<path d="M15.5992 14.04C18.093 14.04 20.1147 12.2066 20.1147 9.94501C20.1147 7.6834 18.093 5.85001 15.5992 5.85001C13.1053 5.85001 11.0836 7.6834 11.0836 9.94501C11.0836 12.2066 13.1053 14.04 15.5992 14.04Z" fill="#38A169"/>
<path d="M56.947 15.9562C56.8772 15.2859 56.5767 14.7652 56.0464 14.394C55.5156 14.0228 54.7955 13.8372 53.8859 13.8372C53.2676 13.8372 52.7459 13.9204 52.3202 14.0865C51.8945 14.2472 51.5681 14.4715 51.3407 14.7596C51.1191 15.0477 51.0082 15.3745 51.0082 15.7402C50.9967 16.0448 51.0636 16.3107 51.2094 16.5379C51.3608 16.765 51.5682 16.9617 51.8305 17.1279C52.0928 17.2885 52.3961 17.4298 52.7401 17.5517C53.0841 17.668 53.4516 17.7677 53.8419 17.8508L55.4515 18.2164C56.2327 18.3826 56.9499 18.6042 57.603 18.8812C58.2561 19.1582 58.8218 19.4989 59.3 19.9033C59.7783 20.3077 60.1485 20.7841 60.4109 21.3326C60.6789 21.881 60.816 22.5097 60.8218 23.2188C60.816 24.2603 60.5361 25.1633 59.9823 25.9278C59.4338 26.6868 58.6412 27.2767 57.603 27.6978C56.571 28.1132 55.3259 28.321 53.8682 28.321C52.4224 28.321 51.1626 28.1105 50.0899 27.6895C49.0226 27.2684 48.1889 26.6452 47.5883 25.8198C46.9935 24.9888 46.6815 23.9612 46.6523 22.7369H50.3173C50.358 23.3075 50.53 23.7839 50.8333 24.1662C51.1425 24.5429 51.5534 24.8281 52.0665 25.0221C52.5854 25.2104 53.1716 25.3046 53.8247 25.3046C54.4659 25.3046 55.023 25.2159 55.495 25.0387C55.9733 24.8614 56.3436 24.6149 56.6059 24.2991C56.8682 23.9833 56.9996 23.6205 56.9996 23.2105C56.9996 22.8283 56.8801 22.507 56.6412 22.2466C56.4076 21.9863 56.0636 21.7647 55.6088 21.5819C55.1601 21.399 54.6088 21.2329 53.9556 21.0833L52.0053 20.6179C50.4951 20.2689 49.3026 19.7232 48.4278 18.9809C47.5534 18.2386 47.1187 17.2387 47.1248 15.9811C47.1187 14.9507 47.4077 14.0505 47.9906 13.2805C48.5797 12.5105 49.3871 11.9094 50.4134 11.4773C51.4397 11.0452 52.6059 10.8291 53.9121 10.8291C55.2414 10.8291 56.4019 11.0452 57.3932 11.4773C58.3903 11.9094 59.1658 12.5105 59.72 13.2805C60.2737 14.0505 60.5595 14.9424 60.5771 15.9562H56.947ZM70.4453 15.3164V17.9755H62.3546V15.3164H70.4453ZM64.1916 12.2584H67.9174V24.1579C67.9174 24.4847 67.9699 24.7395 68.075 24.9223C68.1801 25.0996 68.3258 25.2243 68.5122 25.2963C68.7047 25.3683 68.9264 25.4043 69.1772 25.4043C69.3521 25.4043 69.527 25.3904 69.7018 25.3628C69.8767 25.3295 70.0109 25.3046 70.1041 25.288L70.6903 27.9221C70.5036 27.9775 70.2412 28.0412 69.903 28.1132C69.5647 28.1908 69.1538 28.2379 68.6698 28.2545C67.7716 28.2878 66.9847 28.1742 66.3082 27.9138C65.6374 27.6534 65.1157 27.249 64.7425 26.7006C64.3694 26.1522 64.1855 25.4597 64.1916 24.6232V12.2584ZM78.7982 28.3293C77.4395 28.3293 76.2646 28.0551 75.2732 27.5066C74.288 26.9527 73.5269 26.1826 72.9904 25.1965C72.4539 24.2049 72.1858 23.0554 72.1858 21.748C72.1858 20.4296 72.4539 19.2773 72.9904 18.2912C73.5269 17.2996 74.288 16.5296 75.2732 15.9811C76.2646 15.4272 77.4395 15.1502 78.7982 15.1502C80.157 15.1502 81.329 15.4272 82.3142 15.9811C83.3056 16.5296 84.0695 17.2996 84.6061 18.2912C85.1426 19.2773 85.4107 20.4296 85.4107 21.748C85.4107 23.0554 85.1426 24.2049 84.6061 25.1965C84.0695 26.1826 83.3056 26.9527 82.3142 27.5066C81.329 28.0551 80.157 28.3293 78.7982 28.3293ZM78.8159 25.5871C79.4337 25.5871 79.9497 25.4209 80.3639 25.0885C80.7777 24.7506 81.0897 24.2908 81.2999 23.7091C81.5154 23.1274 81.6233 22.4654 81.6233 21.7231C81.6233 20.9808 81.5154 20.3188 81.2999 19.7371C81.0897 19.1554 80.7777 18.6956 80.3639 18.3577C79.9497 18.0198 79.4337 17.8508 78.8159 17.8508C78.1919 17.8508 77.6669 18.0198 77.2412 18.3577C76.8216 18.6956 76.5039 19.1554 76.288 19.7371C76.0782 20.3188 75.9731 20.9808 75.9731 21.7231C75.9731 22.4654 76.0782 23.1274 76.288 23.7091C76.5039 24.2908 76.8216 24.7506 77.2412 25.0885C77.6669 25.4209 78.1919 25.5871 78.8159 25.5871ZM93.9036 28.3293C92.5276 28.3293 91.3437 28.0523 90.3523 27.4983C89.3671 26.9388 88.6089 26.1632 88.0785 25.1716C87.5535 24.18 87.2912 23.0388 87.2912 21.748C87.2912 20.4406 87.5564 19.2939 88.0872 18.3078C88.6237 17.3162 89.3844 16.5434 90.37 15.9895C91.3556 15.4299 92.5276 15.1502 93.886 15.1502C95.058 15.1502 96.0842 15.3524 96.9648 15.7568C97.8453 16.1612 98.5423 16.729 99.0555 17.4603C99.5686 18.1915 99.8514 19.0502 99.9036 20.0363H96.3876C96.2887 19.3992 96.0259 18.8868 95.6002 18.499C95.1807 18.1056 94.6294 17.909 93.9471 17.909C93.37 17.909 92.8654 18.0586 92.434 18.3577C92.0083 18.6513 91.6762 19.0806 91.4369 19.6457C91.198 20.2107 91.0785 20.8949 91.0785 21.6982C91.0785 22.5125 91.1951 23.205 91.4283 23.7756C91.6672 24.3462 92.0026 24.7811 92.434 25.0802C92.8654 25.3794 93.37 25.5289 93.9471 25.5289C94.3728 25.5289 94.755 25.4458 95.0933 25.2796C95.4373 25.1135 95.7201 24.8725 95.9414 24.5567C96.1688 24.2354 96.3178 23.8504 96.3876 23.4017H99.9036C99.8453 24.3767 99.5657 25.2353 99.0641 25.9777C98.5686 26.7145 97.8831 27.2906 97.0087 27.7061C96.1339 28.1215 95.099 28.3293 93.9036 28.3293ZM105.665 24.4071L105.674 20.1609H106.217L110.52 15.3164H114.797L109.016 21.7314H108.132L105.665 24.4071ZM102.289 28.08V11.0618H106.016V28.08H102.289ZM110.686 28.08L106.733 22.5208L109.217 20.0196L115.05 28.08H110.686ZM120.351 20.701V28.08H116.625V15.3164H120.176V17.5683H120.334C120.631 16.826 121.13 16.2387 121.829 15.8066C122.529 15.369 123.378 15.1502 124.375 15.1502C125.307 15.1502 126.121 15.3441 126.815 15.7319C127.508 16.1196 128.048 16.6736 128.433 17.3938C128.818 18.1084 129.01 18.9615 129.01 19.9531V28.08H125.284V20.5847C125.29 19.8036 125.08 19.1942 124.654 18.7566C124.229 18.3134 123.643 18.0918 122.896 18.0918C122.395 18.0918 121.952 18.1943 121.567 18.3993C121.188 18.6042 120.89 18.9034 120.675 19.2967C120.465 19.6845 120.357 20.1526 120.351 20.701ZM138.07 28.3293C136.687 28.3293 135.498 28.0634 134.501 27.5316C133.51 26.9942 132.746 26.2353 132.209 25.2547C131.673 24.2686 131.405 23.1025 131.405 21.7563C131.405 20.4434 131.673 19.2912 132.209 18.2995C132.746 17.3079 133.501 16.5351 134.475 15.9811C135.454 15.4272 136.603 15.1502 137.921 15.1502C138.807 15.1502 139.632 15.2859 140.396 15.5573C141.166 15.8232 141.836 16.2249 142.408 16.7622C142.985 17.2996 143.434 17.9755 143.755 18.7898C144.075 19.5986 144.236 20.5459 144.236 21.6317V22.6039H132.891V20.4102H140.728C140.728 19.9005 140.612 19.449 140.379 19.0557C140.145 18.6624 139.822 18.3549 139.408 18.1333C138.999 17.9062 138.524 17.7927 137.982 17.7927C137.416 17.7927 136.915 17.9173 136.478 18.1666C136.046 18.4103 135.708 18.7399 135.463 19.1554C135.218 19.5654 135.093 20.0224 135.087 20.5265V22.6122C135.087 23.2438 135.209 23.7895 135.454 24.2493C135.705 24.709 136.058 25.0636 136.512 25.3129C136.967 25.5622 137.507 25.6868 138.131 25.6868C138.544 25.6868 138.924 25.6314 139.268 25.5206C139.612 25.4098 139.906 25.2437 140.151 25.0221C140.396 24.8005 140.583 24.529 140.711 24.2077L144.157 24.4238C143.982 25.2104 143.623 25.8973 143.081 26.4846C142.545 27.0662 141.851 27.5205 140.999 27.8473C140.154 28.1686 139.177 28.3293 138.07 28.3293ZM149.221 28.08L145.565 15.3164H149.335L151.417 23.8919H151.539L153.708 15.3164H157.408L159.612 23.8421H159.726L161.773 15.3164H165.534L161.886 28.08H157.942L155.633 20.0529H155.466L153.157 28.08H149.221ZM178.699 18.956L175.288 19.1554C175.23 18.8784 175.105 18.6291 174.912 18.4076C174.72 18.1804 174.466 18.0004 174.151 17.8674C173.842 17.7289 173.472 17.6597 173.041 17.6597C172.463 17.6597 171.976 17.776 171.58 18.0087C171.183 18.2358 170.985 18.5405 170.985 18.9228C170.985 19.2274 171.113 19.485 171.37 19.6955C171.626 19.9061 172.066 20.075 172.69 20.2024L175.122 20.6678C176.428 20.9226 177.402 21.3326 178.043 21.8976C178.685 22.4627 179.006 23.205 179.006 24.1246C179.006 24.9611 178.746 25.6951 178.227 26.3267C177.714 26.9582 177.008 27.4512 176.11 27.8058C175.218 28.1548 174.189 28.3293 173.023 28.3293C171.245 28.3293 169.827 27.9775 168.772 27.274C167.722 26.5649 167.107 25.601 166.926 24.3822L170.591 24.1994C170.702 24.7146 170.97 25.1079 171.396 25.3794C171.822 25.6453 172.367 25.7782 173.031 25.7782C173.685 25.7782 174.21 25.6591 174.606 25.4209C175.008 25.1772 175.212 24.8642 175.218 24.4819C175.212 24.1606 175.07 23.8975 174.79 23.6925C174.51 23.482 174.078 23.3213 173.495 23.2105L171.169 22.7701C169.857 22.5208 168.88 22.0887 168.238 21.4738C167.603 20.8589 167.285 20.075 167.285 19.1222C167.285 18.3023 167.518 17.596 167.985 17.0032C168.457 16.4105 169.119 15.9534 169.97 15.6321C170.827 15.3108 171.83 15.1502 172.979 15.1502C174.676 15.1502 176.011 15.4909 176.985 16.1722C177.965 16.8537 178.536 17.7815 178.699 18.956ZM190.21 28.08H186.152L192.335 11.0618H197.216L203.391 28.08H199.333L194.846 14.9507H194.706L190.21 28.08ZM189.956 21.3907H199.542V24.1994H189.956V21.3907ZM209.334 11.0618V28.08H205.547V11.0618H209.334Z" fill="black"/>
</g>
</g>
<defs>
<clipPath id="clip0_474_426">
<rect width="211" height="39" fill="white"/>
</clipPath>
</defs>
</svg>
